<mxfile host="app.diagrams.net" agent="Mozilla/5.0 (Windows NT 10.0; Win64; x64) AppleWebKit/537.36 (KHTML, like Gecko) Chrome/131.0.0.0 Safari/537.36" version="25.0.3">
  <diagram name="Page-1" id="0OWegTBPpmV0_kpqDBKX">
    <mxGraphModel dx="1434" dy="772" grid="1" gridSize="10" guides="1" tooltips="1" connect="1" arrows="1" fold="1" page="1" pageScale="1" pageWidth="850" pageHeight="1100" math="0" shadow="0">
      <root>
        <mxCell id="0" />
        <mxCell id="1" parent="0" />
        <mxCell id="znXeA5IErzGMmO9THv0o-5" style="edgeStyle=orthogonalEdgeStyle;rounded=0;orthogonalLoop=1;jettySize=auto;html=1;exitX=0.5;exitY=1;exitDx=0;exitDy=0;entryX=0.5;entryY=0;entryDx=0;entryDy=0;" edge="1" parent="1" source="znXeA5IErzGMmO9THv0o-1" target="znXeA5IErzGMmO9THv0o-2">
          <mxGeometry relative="1" as="geometry" />
        </mxCell>
        <mxCell id="znXeA5IErzGMmO9THv0o-1" value="start" style="ellipse;whiteSpace=wrap;html=1;" vertex="1" parent="1">
          <mxGeometry x="360" y="250" width="120" height="80" as="geometry" />
        </mxCell>
        <mxCell id="znXeA5IErzGMmO9THv0o-6" style="edgeStyle=orthogonalEdgeStyle;rounded=0;orthogonalLoop=1;jettySize=auto;html=1;exitX=0.5;exitY=1;exitDx=0;exitDy=0;entryX=0.5;entryY=0;entryDx=0;entryDy=0;" edge="1" parent="1" source="znXeA5IErzGMmO9THv0o-2" target="znXeA5IErzGMmO9THv0o-3">
          <mxGeometry relative="1" as="geometry" />
        </mxCell>
        <mxCell id="znXeA5IErzGMmO9THv0o-2" value="nhập a" style="shape=parallelogram;perimeter=parallelogramPerimeter;whiteSpace=wrap;html=1;fixedSize=1;" vertex="1" parent="1">
          <mxGeometry x="360" y="370" width="120" height="60" as="geometry" />
        </mxCell>
        <mxCell id="znXeA5IErzGMmO9THv0o-3" value="a % 2 = 0" style="rhombus;whiteSpace=wrap;html=1;" vertex="1" parent="1">
          <mxGeometry x="380" y="470" width="80" height="80" as="geometry" />
        </mxCell>
        <mxCell id="znXeA5IErzGMmO9THv0o-4" value="a là số chẵn" style="strokeWidth=2;html=1;shape=mxgraph.flowchart.display;whiteSpace=wrap;" vertex="1" parent="1">
          <mxGeometry x="360" y="620" width="100" height="60" as="geometry" />
        </mxCell>
        <mxCell id="znXeA5IErzGMmO9THv0o-7" style="edgeStyle=orthogonalEdgeStyle;rounded=0;orthogonalLoop=1;jettySize=auto;html=1;exitX=0.5;exitY=1;exitDx=0;exitDy=0;entryX=0.58;entryY=-0.033;entryDx=0;entryDy=0;entryPerimeter=0;" edge="1" parent="1" source="znXeA5IErzGMmO9THv0o-3" target="znXeA5IErzGMmO9THv0o-4">
          <mxGeometry relative="1" as="geometry">
            <Array as="points">
              <mxPoint x="420" y="610" />
              <mxPoint x="418" y="610" />
            </Array>
          </mxGeometry>
        </mxCell>
        <mxCell id="znXeA5IErzGMmO9THv0o-8" value="true" style="text;html=1;align=center;verticalAlign=middle;resizable=0;points=[];autosize=1;strokeColor=none;fillColor=none;" vertex="1" parent="1">
          <mxGeometry x="425" y="550" width="40" height="30" as="geometry" />
        </mxCell>
        <mxCell id="znXeA5IErzGMmO9THv0o-9" value="a là số lẻ" style="strokeWidth=2;html=1;shape=mxgraph.flowchart.display;whiteSpace=wrap;" vertex="1" parent="1">
          <mxGeometry x="190" y="490" width="100" height="60" as="geometry" />
        </mxCell>
        <mxCell id="znXeA5IErzGMmO9THv0o-10" style="edgeStyle=orthogonalEdgeStyle;rounded=0;orthogonalLoop=1;jettySize=auto;html=1;exitX=0;exitY=0.5;exitDx=0;exitDy=0;entryX=0.97;entryY=0.333;entryDx=0;entryDy=0;entryPerimeter=0;" edge="1" parent="1" source="znXeA5IErzGMmO9THv0o-3" target="znXeA5IErzGMmO9THv0o-9">
          <mxGeometry relative="1" as="geometry" />
        </mxCell>
        <mxCell id="znXeA5IErzGMmO9THv0o-11" value="false" style="text;html=1;align=center;verticalAlign=middle;resizable=0;points=[];autosize=1;strokeColor=none;fillColor=none;" vertex="1" parent="1">
          <mxGeometry x="335" y="478" width="50" height="30" as="geometry" />
        </mxCell>
      </root>
    </mxGraphModel>
  </diagram>
</mxfile>
